<svg width="241" height="274" viewBox="0 0 241 274" fill="none" xmlns="http://www.w3.org/2000/svg">
<path d="M28.047 52.0001C25.2136 92.5001 33.1998 165.7 87.9998 150.5C152 114.5 184.5 185.5 193 202.5C208 182 238.047 149.5 231.047 52.0001C178.547 30.5 142.547 16.5 117.547 12.5001L28.047 44.5001V52.0001Z" fill="#FF7001"/>
<path fill-rule="evenodd" clip-rule="evenodd" d="M0.0466329 44L120.047 0L239.047 43.5C241.047 65.3333 241.447 118.9 227.047 158.5C209.047 208 182.047 251 120.047 274C58.5469 252 22.9691 192 12.5468 158.5C-1.45316 113.5 0.0468076 66.5 0.0466329 44ZM223.561 55L120.561 18L16.0608 56C14.8941 119.167 24.046 216.5 120.561 255.5C215.561 215.5 225.394 116.667 223.561 55Z" fill="#161616"/>
<path d="M38.9886 174.5C49.2216 195.167 51.3432 199.277 68.0002 216C83.1182 231.179 92.364 234.714 112.5 245L118.5 248L126 252.5C133.917 248.899 146.017 246.416 153 241.752H164.781L178.91 234.499C180.883 234.499 179.1 216.51 176.339 208.573C173.011 199.002 168.986 192.517 158.41 179.688C148.347 167.482 145.74 162.719 145.056 155.294C144.026 144.106 153.925 134.499 166.482 134.499C178.811 134.499 191.858 124.078 199.66 107.999C203.689 99.6948 208.433 84.9198 207.402 83.8878L202.654 78.7488C202.621 77.7478 190.88 68.9408 183.272 64.2098C170.19 56.0748 155.514 50.6628 140.634 48.4868C130.416 46.9928 109.913 47.6278 104.199 49.6148L100.22 50.9988L96.8604 47.2788C95.0124 45.2328 91.0634 42.3658 88.0844 40.9088C70.5834 32.3458 52.6474 47.9858 59.0764 66.2058C60.4684 70.1528 60.4634 70.1708 57.1004 72.8548C52.6844 76.3778 56.9342 90.834 52.0002 99C48.6002 104.627 38.2192 118.708 35.5002 128C32.2431 137.823 31.3339 157.206 38.9886 174.5Z" fill="white"/>
<path fill-rule="evenodd" clip-rule="evenodd" d="M26.7204 175.886C36.9534 196.553 44.9994 207.74 61.6564 224.463C76.7744 239.642 90.4264 249.503 110.562 259.789L121.944 265.604L127.062 263.276C134.979 259.675 151.497 250.512 158.48 245.848L164.781 241.639L158.463 236.612C149.063 229.133 136.802 215.927 130.885 206.911C116.267 184.637 112.875 156.654 122.73 139.636C125.787 134.357 122.966 135.869 115.267 143.636C110.274 148.673 106.813 153.348 103.926 158.951C99.1964 168.13 97.8044 173.318 96.8314 185.386L96.1464 193.886L94.4124 187.18C87.6524 161.027 99.6854 135.089 124.67 121.96C136.199 115.902 143.83 114.328 165.679 113.503C176.404 113.097 185.341 112.88 185.538 113.018C185.98 113.329 182.071 119.081 179.341 122.136C177.729 123.939 176.266 124.386 171.97 124.386C166.868 124.386 166.662 124.286 167.71 122.328C168.756 120.374 168.619 120.305 164.995 120.962C150.029 123.676 136.562 134.244 131.71 147.085C123.909 167.728 132.837 194.688 154.621 216.268C162.074 223.651 176.465 234.386 178.91 234.386C180.883 234.386 179.1 216.397 176.339 208.46C173.011 198.889 168.986 192.404 158.41 179.575C148.347 167.369 145.74 162.606 145.056 155.181C144.026 143.993 153.925 134.386 166.482 134.386C178.811 134.386 191.858 123.965 199.66 107.886C203.689 99.5818 208.433 84.8068 207.402 83.7748C207.077 83.4498 204.972 84.2168 202.725 85.4798C199.363 87.3698 198.533 88.4458 198.035 91.5628C197.35 95.8458 195.679 95.7518 195.679 91.4308C195.679 89.1048 194.738 87.9908 190.456 85.2428L185.234 81.8918L191.706 80.6858C195.266 80.0218 199.191 79.4578 200.429 79.4328C201.667 79.4068 202.668 79.0478 202.654 78.6358C202.621 77.6348 190.88 68.8278 183.272 64.0968C170.19 55.9618 155.514 50.5498 140.634 48.3738C130.416 46.8798 109.913 47.5148 104.199 49.5018L100.22 50.8858L96.8604 47.1658C95.0124 45.1198 91.0634 42.2528 88.0844 40.7958C70.5834 32.2328 52.6474 47.8728 59.0764 66.0928C60.4684 70.0398 60.4634 70.0578 57.1004 72.7418C52.6844 76.2648 43.9224 87.2198 38.9884 95.3858C35.5884 101.013 29.6424 115.508 26.9234 124.8C23.6663 134.623 19.0657 158.592 26.7204 175.886ZM91.6744 59.6518C91.6774 58.9728 90.4424 57.0958 88.9294 55.4798C87.4164 53.8638 85.0544 52.2478 83.6794 51.8878C81.3464 51.2778 81.3794 51.3708 84.1794 53.2798C85.8294 54.4048 88.1894 56.5768 89.4244 58.1058C90.6594 59.6348 91.6714 60.3308 91.6744 59.6518ZM143.445 82.3858C149.992 82.3858 153.177 74.0808 148.365 69.5598C147.092 68.3638 144.821 67.3858 143.319 67.3858C139.845 67.3858 135.679 71.4758 135.679 74.8858C135.679 78.3638 139.843 82.3858 143.445 82.3858ZM80.0024 121.457C83.5964 116.785 94.1364 107.554 100.282 103.695C104.334 101.15 99.8154 102.584 92.6794 106.106C87.6254 108.602 83.0224 111.945 78.5644 116.359C67.6714 127.145 62.5944 139.688 62.7814 155.346C62.8904 164.418 62.9474 164.34 66.0844 150.886C68.1304 142.106 74.5374 128.559 80.0024 121.457Z" fill="#161616"/>
<path fill-rule="evenodd" clip-rule="evenodd" d="M92.9684 39.0748C93.2624 38.3088 95.4554 36.7158 97.8414 35.5348C103.13 32.9168 108.842 32.8228 114.22 35.2658C118.056 37.0078 123.679 42.4758 123.679 44.4628C123.679 44.9708 121.316 45.3948 118.429 45.4068C115.542 45.4178 110.36 46.0178 106.915 46.7398L100.651 48.0528L96.5424 44.2598C94.1614 42.0618 92.6594 39.8818 92.9684 39.0748Z" fill="#161616"/>
</svg>
